<?xml version="1.0" encoding="utf-8"?>
<!-- Generator: Adobe Illustrator 27.7.0, SVG Export Plug-In . SVG Version: 6.00 Build 0)  -->
<svg version="1.1" id="Layer_1" xmlns="http://www.w3.org/2000/svg" xmlns:xlink="http://www.w3.org/1999/xlink" x="0px" y="0px"
	 viewBox="0 0 360 360" style="enable-background:new 0 0 360 360;" xml:space="preserve">
<style type="text/css">
	.st0{font-family:'Roboto-Black';}
	.st1{font-size:38.3496px;}
</style>
<path d="M17.1,125.6c-21.27,5.39-13.78,29.06,1.5,32.05c9.59,2.7,20.37,2.1,20.37,5.09c10.49-0.9,11.98,6.59,17.97,8.99
	c2.48,0.63,4.28,0.53,5.39-0.3c5.26,2.22,10.57,4.2,16.1,5.24v5.84l0.97,3.67l1.12,49.13l2.17-38.79l1.2,3.45l0.15,36.7
	c1.12,3.07,2.85,10.93,2.47,12.06l-0.3,11.01c0.57,2.49,0.88,7.16,0.75,15.8l2.85,26.06l3.07-26.29l-0.45-14.75l2.17-6.44
	c-0.16-5.22-0.08-11.52,0.15-18.5l1.35,31.9l2.55-51.68c-0.11-1.52-0.28-3.04-0.52-4.57l4.27-11.83v-11.61l1.42-2.92V179
	c9.19,0.71,17.36,1.7,16.33,5.17c1.76,3.21,5.53,5.98,14.3,7.64c3.84,0.26,6.57,1.91,6.22,7.41l-0.15,9.96
	c1.47,5.18,2.86,10.29,1.72,13.48l0.07,7.26c1.06,1.93,1.51,7.94,1.42,17.52l0.9,29.81l1.27-14.75l0.3,25.76l1.5,20.45l4.34-47.48
	l-0.9-13.48l2.77-7.79c0.27-17.63,0.14-37.6,2.4-43.51l0.67,40.97l3.37-41.57c4.34-0.82,8.09-1.94,9.51,1.2
	c0.84,2.48,2.1,4.72,3.45,5.62c4.49-1.57,4.49,0,5.99,2.55c0.2,0.94-0.89,1.41-3.07,1.5c0.12,1.05,0.37,2.08,4.12,2.77
	c4.72-1.72,4.94-3.82,12.51-4.12c3.65-0.65,5.57-0.13,5.62,1.65l0.07,10.26c0.26,3.75,0.1,7.92-1.35,13.41l3.3,30.78l0.75-1.2
	l0.97-23.22l2.02,2.77l1.12,44.34l2.17-17l-0.07-11.23l2.62-5.77v-31.38l2.1-7.49c1.68,0.53,2.73,1.12,2.85,1.8
	c1.31,0.68,2.78,1.31,11.38-0.22l11.53,2.55c-0.07,1.09,0.36,1.88,3.07,1.35c4.34-2.15,8.84-4.91,12.36-4.04
	c0.69,9.64,0.73,19.54-1.12,30.18l3.15,6.82l1.72,42.39l2.4-26.21l2.17-6.44l0.67-21.64l1.57,28.01l2.55-42.54l-1.57-8.84
	c10.72,1.71,20.99,3.52,25.61,6.67c2.32,3.74,6.07,4.57,4.94-0.15c-0.84-1.97-2.34-3.81-4.94-5.39c3.82-0.97,17.97,4.64,26.36,5.39
	c6.29,0,4.12,2.85,7.86,4.87c1.82,0.43,5.31-0.09,9.44-0.97c2.77,0.3,6.67,2.17,10.19,2.4l9.51,0.07c1.37-0.43,2.47-1.02,2.85-2.1
	c-0.15-1.17-1.53-1.98-4.27-2.4h-4.42c-1.26-0.43-2.57-1.36-3.97-3.15c-4.1-2.99-11.38-6.37-14.75-6.29
	c-3.53,0.92-6.6,0.52-8.76-2.55c-2.92,0.06-5.53-0.21-6.44-2.25c-4.27-2.1-14.19-4.65-15.88-4.27l-3.89,0.07
	c-3.89-0.67-2.4-3-3.89-4.79c-2.25-2.47-2.1,1.35-4.64,0.82c-8.99-0.97-9.06-3.07-12.43-3.67c-6.22,0.3-2.85,0.9-8.84-0.75
	l0.37-4.87l1.87-4.64l0.52-28.23l2.17-4.64l1.27,22.92l2.55-52.13l-1.87-3.52l2.1-4.57l-1.05-1.5l0.15-5.92l-4.34-9.44
	c-3.02-1.08-5.54-2.57-7.41-4.57l-2.25-17.6l-2.77,18.05c-0.64,0.84-1.31,1.36-2.17-0.3l-1.35-10.26l-1.35,13.18l-1.2-3.45
	l-2.17,6.82c-3.3,1.2-3.15,5.99-4.04,12.21l1.65,5.17l0.07,11.08l-1.5,3.89l-0.22,17.75l2.4,13.33l1.27-9.44l1.65,4.04l-1.87,21.04
	l0.52,10.63l-2.55-1.87c-4.94-0.37-5.84-2.17-7.41-2.4c-3.07,1.57-5.47,0.07-5.92-3.89c-6.44,0.26-12.23-0.03-17-1.87
	c0.01-3.59-0.08-6.78,0.52-8.54l0.37-33.93l1.2-5.39l0.45,30.93l1.57-2.47l1.87-47.33l-2.55-7.64l0.67-18.12l3-9.21l-2.17-10.63
	l-3.22-1.12l-2.85-7.26l-1.5,3.45l-5.47-2.47l-1.35-7.79l-2.17,8.91l-2.1-15.73l-3,19.4l-4.34,5.09c-0.51,3.36-1.24,6.4-2.32,8.91
	c0.37,4.72,1.5,5.17-0.6,11.31l1.57,3.22l1.2,27.56l0.67,1.05l-0.52,19.62l2.32,8.69l0,23.44c-1.36,0.13-3.69-1.5-7.11-5.09
	c-1.13-1.12-3.04-2.06-6.29-2.7c-1.5-1.87-11.46-5.99-13.56-6.52c-4.79,0.75-5.42,1.23-5.77,0.07l0.52-23.97l-1.2-4.64l0.37-22.62
	l0.97-4.34l1.12,21.64l1.42-31.6l1.87-6.07l-1.05-19.02l-1.05-4.94l-2.02-0.67l-1.65-14.53l-2.17,11.53l-1.05-10.41l-1.27,6.59
	l-0.52-0.22l-0.97-17.38l-4.94,18.95c-5.26,2-10.08,3.37-14.53,4.19l-4.94,8.46v18.57l3.45,8.84l-0.15,15.65l3.97,11.61l-2.47,5.77
	l1.27,23.37c-1.73-0.19-2.92-2.77-4.42-4.64c-7.64,3.45-13.41,0.75-30.33-5.47v-12.43l2.32-5.62l0.37-13.41l0.67-1.42l-0.3-5.39
	c1-1.26,2.05-3.44,3.37-8.76l-3.37-15.65l-1.27,5.99l-2.32-25.61l-4.19,20.9l-2.7-12.66l-1.95,9.44l-6.89-0.37l-7.86,5.92v4.57
	l-2.32,4.34c0.67,10.78,0.3,4.79,0,12.36v8.99l-2.47,8.84l3.3,14.75l0.07,0.67l-9.74-0.15c-20.3-2.02-11.68-5.39-21.42-7.41
	c-0.84,0.05-1.73,0.08-3.52-0.45c-12.43-9.74-9.36-5.84-12.73-8.16C26.46,121.18,18.97,120.21,17.1,125.6z"/>
<text transform="matrix(0.982 0 0 1 8.0972 349.6064)" class="st0 st1">DEAD BY DAYLIGHT</text>
</svg>
